<svg width="512" height="441" viewBox="0 0 512 441" fill="none" xmlns="http://www.w3.org/2000/svg">
<path d="M175.62 399.39C185.37 401.83 191.31 411.72 188.87 421.47C186.43 431.23 176.54 437.16 166.79 434.72C107.73 419.84 60.27 382.42 31.31 333.95C2.33997 285.48 -8.14003 225.98 6.71997 166.96C21.59 107.9 59.02 60.46 107.49 31.49C155.96 2.51996 215.46 -7.96004 274.48 6.89996C295.08 12.09 314.3 20.04 331.81 30.25C349.155 40.3635 365.03 52.8096 378.99 67.24L379.13 55.66C379.26 45.62 387.51 37.59 397.54 37.72C407.57 37.85 415.6 46.1 415.48 56.12L414.77 114.18C414.75 116.04 414.44 117.83 413.9 119.51C412.24 128.59 403.91 135.1 394.52 134.31L336.65 129.66C326.64 128.82 319.22 120.03 320.06 110.03C320.9 100.03 329.69 92.61 339.68 93.45L354.96 94.68C354.63 94.38 354.3 94.06 353.99 93.73C342.21 81.35 328.64 70.52 313.57 61.74C298.96 53.22 282.89 46.57 265.65 42.23C216.29 29.8 166.59 38.53 126.15 62.7C85.71 86.87 54.47 126.48 42.05 175.8C29.62 225.15 38.35 274.86 62.52 315.29C86.69 355.73 126.31 386.97 175.62 399.39ZM238.28 404.43C219.57 405.93 214.99 432.89 234.24 439.89C236.9 440.7 238.94 440.97 241.76 440.74C254.73 439.58 268.33 437.13 280.84 433.53C301.26 427.57 296.99 396.85 274.47 397.79C273.24 397.9 272.01 398.1 270.84 398.45C262.18 401.48 247.54 403.6 238.28 404.43ZM330.05 369.43C323.35 374.45 321.02 383.11 324.05 390.86C328.57 401.92 342.3 405.83 351.88 398.64C362.5 390.84 372.47 381.73 381.46 372.11C384.33 369.06 386.11 364.81 386.29 360.66C387.03 343.59 366.41 334.91 354.69 347.32C347.43 355.26 338.71 363.06 330.05 369.43Z" fill="black"/>
<path d="M119.987 280.166C119.987 277.507 120.208 274.681 120.652 271.689C121.206 268.586 121.981 265.317 122.979 261.881C124.087 258.335 125.417 254.623 126.968 250.744L138.937 255.399C137.828 258.501 136.831 261.438 135.944 264.209C135.169 266.979 134.559 269.583 134.116 272.021C133.784 274.459 133.617 276.786 133.617 279.003C133.617 283.657 134.615 287.591 136.609 290.805C138.715 294.129 141.596 296.844 145.253 298.95C148.91 301.055 153.066 302.607 157.72 303.604C162.485 304.601 167.527 305.1 172.847 305.1C179.274 305.1 185.258 304.546 190.799 303.438C196.451 302.33 201.382 300.723 205.593 298.617C209.915 296.623 213.295 294.295 215.733 291.636C218.171 289.087 219.39 286.317 219.39 283.325C219.39 281.884 218.836 280.554 217.728 279.335C216.62 278.116 214.957 276.953 212.741 275.844C210.525 274.736 207.865 273.683 204.762 272.686C201.659 271.578 198.113 270.47 194.124 269.362L197.282 255.565C203.044 257.781 208.142 259.665 212.575 261.216C217.007 262.657 220.886 263.821 224.211 264.707C227.535 265.594 230.416 266.259 232.854 266.702C235.292 267.034 237.342 267.201 239.005 267.201C241.332 267.201 242.994 267.865 243.991 269.195C245.1 270.414 245.654 271.91 245.654 273.683C245.654 275.456 244.878 277.119 243.327 278.67C241.775 280.111 239.78 280.831 237.342 280.831C236.678 280.831 236.013 280.831 235.348 280.831C234.683 280.831 233.963 280.831 233.187 280.831C232.522 280.831 231.857 280.831 231.192 280.831C231.414 281.828 231.58 282.604 231.691 283.158C231.802 283.823 231.857 284.654 231.857 285.652C231.857 289.752 230.416 293.741 227.535 297.62C224.765 301.499 220.664 304.989 215.234 308.092C209.804 311.306 203.211 313.855 195.453 315.739C187.807 317.623 179.052 318.564 169.19 318.564C160.435 318.564 152.29 317.124 144.754 314.243C137.33 311.472 131.346 307.261 126.802 301.609C122.259 295.958 119.987 288.81 119.987 280.166ZM352.093 280.831C349.212 280.831 345.555 280.554 341.122 280C336.8 279.335 332.368 278.227 327.824 276.675C323.391 275.124 319.624 272.963 316.521 270.193L330.151 263.377C334.03 264.929 338.019 265.982 342.119 266.536C346.331 266.979 350.209 267.201 353.755 267.201C356.082 267.201 357.745 267.865 358.742 269.195C359.85 270.414 360.404 271.91 360.404 273.683C360.404 275.456 359.629 277.119 358.077 278.67C356.526 280.111 354.531 280.831 352.093 280.831ZM234.072 280.831L235.735 267.201H270.476C280.117 267.201 288.428 266.813 295.41 266.037C302.502 265.15 308.32 263.876 312.864 262.214C317.407 260.552 320.787 258.446 323.003 255.897C325.22 253.238 326.328 250.135 326.328 246.589C326.328 244.705 325.718 242.655 324.499 240.438C323.28 238.222 321.397 236.338 318.848 234.786C316.299 233.124 312.919 232.293 308.708 232.293C303.389 232.293 298.07 233.678 292.75 236.449C287.542 239.219 282.555 242.71 277.79 246.921C273.136 251.021 268.98 255.232 265.323 259.554C261.666 263.876 258.729 267.644 256.513 270.858L242.051 270.359C245.597 264.596 249.809 258.723 254.684 252.739C259.671 246.644 265.101 241.048 270.975 235.95C276.959 230.742 283.22 226.586 289.758 223.483C296.296 220.269 302.945 218.663 309.705 218.663C315.8 218.663 321.009 219.937 325.331 222.486C329.763 224.924 333.143 228.248 335.47 232.459C337.908 236.67 339.127 241.436 339.127 246.755C339.127 251.963 337.243 257.227 333.476 262.546C329.708 267.755 323.225 271.855 314.027 274.847C309.373 276.398 304.054 277.617 298.07 278.504C292.085 279.391 285.27 280 277.624 280.332C269.977 280.665 261.278 280.831 251.526 280.831H234.072ZM249.864 264.375L246.539 161.315H260.004L263.328 252.739L249.864 264.375ZM454.648 280.831C449.994 280.831 445.727 280.554 441.849 280C437.97 279.335 434.479 278.172 431.376 276.509C428.273 274.847 425.669 272.464 423.564 269.362C421.458 266.148 419.851 261.937 418.743 256.728L428.551 250.91C429.991 255.343 431.764 258.723 433.87 261.05C435.975 263.377 438.801 264.984 442.347 265.871C446.004 266.757 450.659 267.201 456.31 267.201C458.637 267.201 460.3 267.865 461.297 269.195C462.405 270.414 462.959 271.91 462.959 273.683C462.959 275.456 462.184 277.119 460.632 278.67C459.081 280.111 457.086 280.831 454.648 280.831ZM348.762 280.831L350.258 267.201C356.021 267.201 361.672 266.757 367.213 265.871C372.754 264.984 378.184 263.71 383.503 262.048C388.822 260.385 393.92 258.391 398.796 256.063C403.783 253.625 408.493 250.855 412.925 247.752C410.044 245.203 406.72 242.987 402.952 241.103C399.184 239.219 395.028 237.779 390.485 236.781C386.052 235.673 381.342 235.119 376.356 235.119C374.582 235.119 372.92 235.174 371.369 235.285C369.817 235.396 368.266 235.618 366.714 235.95C365.163 236.172 363.39 236.504 361.395 236.947L358.736 224.314C361.728 223.428 364.72 222.763 367.712 222.32C370.704 221.765 373.585 221.488 376.356 221.488C382.118 221.488 387.326 222.209 391.981 223.649C396.635 224.979 400.846 226.641 404.614 228.636C408.493 230.631 412.094 232.626 415.419 234.62C418.854 236.615 422.179 238.333 425.392 239.773C428.606 241.103 431.93 241.768 435.366 241.768H438.857L440.02 253.736C435.255 253.736 430.878 254.401 426.888 255.731C422.899 257.061 418.965 258.778 415.086 260.884C411.318 262.879 407.329 265.04 403.118 267.367C398.907 269.583 394.253 271.744 389.155 273.85C384.057 275.844 378.184 277.507 371.535 278.836C364.997 280.166 357.406 280.831 348.762 280.831ZM374.859 204.367C372.532 204.367 370.538 203.591 368.875 202.04C367.324 200.378 366.548 198.438 366.548 196.222C366.548 194.006 367.324 192.066 368.875 190.404C370.538 188.742 372.532 187.911 374.859 187.911C377.076 187.911 378.96 188.742 380.511 190.404C382.173 192.066 383.005 194.006 383.005 196.222C383.005 198.438 382.173 200.378 380.511 202.04C378.96 203.591 377.076 204.367 374.859 204.367ZM451.277 280.831L452.939 267.201C459.477 267.201 464.575 266.979 468.232 266.536C471.889 265.982 474.493 264.707 476.044 262.712C477.596 260.607 478.372 257.338 478.372 252.905C478.372 250.135 477.928 246.866 477.042 243.098C476.155 239.219 474.992 235.119 473.551 230.797C472.11 226.475 470.559 222.209 468.897 217.998L482.361 213.011C483.802 216.557 485.131 220.602 486.35 225.145C487.68 229.689 488.788 234.177 489.675 238.61C490.562 243.042 491.005 246.921 491.005 250.246C491.005 255.786 490.229 260.496 488.678 264.375C487.237 268.253 484.91 271.412 481.696 273.85C478.482 276.288 474.327 278.061 469.229 279.169C464.242 280.277 458.258 280.831 451.277 280.831ZM487.514 195.723C485.187 195.723 483.192 194.948 481.53 193.396C479.978 191.734 479.203 189.795 479.203 187.578C479.203 185.362 479.978 183.423 481.53 181.76C483.192 180.098 485.187 179.267 487.514 179.267C489.73 179.267 491.614 180.098 493.166 181.76C494.828 183.423 495.659 185.362 495.659 187.578C495.659 189.795 494.828 191.734 493.166 193.396C491.614 194.948 489.73 195.723 487.514 195.723ZM464.741 195.723C462.414 195.723 460.419 194.948 458.757 193.396C457.205 191.734 456.43 189.795 456.43 187.578C456.43 185.362 457.205 183.423 458.757 181.76C460.419 180.098 462.414 179.267 464.741 179.267C466.957 179.267 468.841 180.098 470.393 181.76C472.055 183.423 472.886 185.362 472.886 187.578C472.886 189.795 472.055 191.734 470.393 193.396C468.841 194.948 466.957 195.723 464.741 195.723Z" fill="black"/>
</svg>
