<svg xmlns="http://www.w3.org/2000/svg" width="44.026" height="44.026" viewBox="0 0 44.026 44.026">
  <path id="down_arrow" data-name="down arrow" d="M49.513,28A21.513,21.513,0,1,0,71.026,49.513,21.513,21.513,0,0,0,49.513,28Zm0,41.3A19.792,19.792,0,1,1,69.3,49.513,19.792,19.792,0,0,1,49.513,69.3Zm7.493-18.68a.861.861,0,0,1,0,1.218l-6.884,6.884a.861.861,0,0,1-1.218,0L42.02,51.843a.861.861,0,0,1,1.218-1.218l5.415,5.415V40.908a.861.861,0,0,1,1.721,0V56.04l5.415-5.415a.861.861,0,0,1,1.218,0Z" transform="translate(-27.5 -27.5)" fill="#fff" stroke="#fff" stroke-width="1"/>
</svg>
