<svg xmlns="http://www.w3.org/2000/svg" version="1.1" xmlns:xlink="http://www.w3.org/1999/xlink" width="512" height="512" x="0" y="0" viewBox="0 0 682.667 682.667" style="enable-background:new 0 0 512 512" xml:space="preserve" class="hovered-paths"><g><defs><clipPath id="a" clipPathUnits="userSpaceOnUse"><path d="M0 512h512V0H0Z" fill="#494949" opacity="1" data-original="#000000" class=""></path></clipPath><clipPath id="b" clipPathUnits="userSpaceOnUse"><path d="M0 512h512V0H0Z" fill="#494949" opacity="1" data-original="#000000" class=""></path></clipPath></defs><g clip-path="url(#a)" transform="matrix(1.33333 0 0 -1.33333 0 682.667)"><path d="M0 0c0-13.808 11.193-25 25-25S50-13.808 50 0c0 13.807-11.193 25-25 25S0 13.807 0 0" style="fill-opacity:1;fill-rule:evenodd;stroke:none" transform="translate(355.11 425.623)" fill="#5ab2e3" data-original="#66e0f7" class="" opacity="1"></path><path d="M0 0c0 24.853-20.147 45-45 45S-90 24.853-90 0c0-24.854 20.147-45 45-45S0-24.854 0 0" style="fill-opacity:1;fill-rule:evenodd;stroke:none" transform="translate(301 256.002)" fill="#5ab2e3" data-original="#ffc144" class="" opacity="1"></path><path d="M0 0c0 13.807-11.193 25-25 25-13.808 0-25-11.193-25-25 0-13.808 11.192-25 25-25C-11.193-25 0-13.808 0 0" style="fill-opacity:1;fill-rule:evenodd;stroke:none" transform="translate(218.959 75.303)" fill="#5ab2e3" data-original="#66e0f7" class="" opacity="1"></path><path d="M0 0c24.785 0 45 20.215 45 45S24.785 90 0 90s-45-20.215-45-45S-24.785 0 0 0Z" style="stroke-width:20;stroke-linecap:round;stroke-linejoin:round;stroke-miterlimit:2.613;stroke-dasharray:none;stroke-opacity:1" transform="translate(256 211.002)" fill="none" stroke="#494949" stroke-width="20" stroke-linecap="round" stroke-linejoin="round" stroke-miterlimit="2.613" stroke-dasharray="none" stroke-opacity="" data-original="#000000" class="hovered-path" opacity="1"></path><path d="M0 0c-6.655 87.833-68.549 163.854-183.153 133.146m3.001-339.598c108.781 0 167.673 78.986 178.81 161.538" style="stroke-width:20;stroke-linecap:round;stroke-linejoin:round;stroke-miterlimit:2.613;stroke-dasharray:none;stroke-opacity:1" transform="translate(436.152 216.454)" fill="none" stroke="#494949" stroke-width="20" stroke-linecap="round" stroke-linejoin="round" stroke-miterlimit="2.613" stroke-dasharray="none" stroke-opacity="" data-original="#000000" class="hovered-path" opacity="1"></path><path d="M0 0c65.435 21.988 111.374 80.408 86.331 173.867m-339.599-3c0-88.051 51.754-143.425 115.256-167.245" style="stroke-width:20;stroke-linecap:round;stroke-linejoin:round;stroke-miterlimit:2.613;stroke-dasharray:none;stroke-opacity:1" transform="translate(263.268 85.135)" fill="none" stroke="#494949" stroke-width="20" stroke-linecap="round" stroke-linejoin="round" stroke-miterlimit="2.613" stroke-dasharray="none" stroke-opacity="" data-original="#000000" class="hovered-path" opacity="1"></path><path d="M0 0c28.199-48.767 82.031-77.95 160.671-56.878m-3 339.6c-124.101 0-183.286-102.793-180.68-196.409" style="stroke-width:20;stroke-linecap:round;stroke-linejoin:round;stroke-miterlimit:2.613;stroke-dasharray:none;stroke-opacity:1" transform="translate(98.33 219.28)" fill="none" stroke="#494949" stroke-width="20" stroke-linecap="round" stroke-linejoin="round" stroke-miterlimit="2.613" stroke-dasharray="none" stroke-opacity="" data-original="#000000" class="hovered-path" opacity="1"></path><path d="M0 0c-94.068-.227-181.092-62.478-148.595-183.759m339.599 3.001c0 60.646-24.574 105.776-60.604 135.78" style="stroke-width:20;stroke-linecap:round;stroke-linejoin:round;stroke-miterlimit:2.613;stroke-dasharray:none;stroke-opacity:1" transform="translate(310.996 436.76)" fill="none" stroke="#494949" stroke-width="20" stroke-linecap="round" stroke-linejoin="round" stroke-miterlimit="2.613" stroke-dasharray="none" stroke-opacity="" data-original="#000000" class="hovered-path" opacity="1"></path><path d="M0 0c13.77 0 25 11.23 25 25S13.77 50 0 50s-25-11.23-25-25S-13.77 0 0 0Z" style="stroke-width:20;stroke-linecap:round;stroke-linejoin:round;stroke-miterlimit:2.613;stroke-dasharray:none;stroke-opacity:1" transform="translate(380.11 400.623)" fill="none" stroke="#494949" stroke-width="20" stroke-linecap="round" stroke-linejoin="round" stroke-miterlimit="2.613" stroke-dasharray="none" stroke-opacity="" data-original="#000000" class="hovered-path" opacity="1"></path><path d="M0 0c13.77 0 25 11.23 25 25S13.77 50 0 50s-25-11.23-25-25S-13.77 0 0 0Z" style="stroke-width:20;stroke-linecap:round;stroke-linejoin:round;stroke-miterlimit:2.613;stroke-dasharray:none;stroke-opacity:1" transform="translate(193.959 50.303)" fill="none" stroke="#494949" stroke-width="20" stroke-linecap="round" stroke-linejoin="round" stroke-miterlimit="2.613" stroke-dasharray="none" stroke-opacity="" data-original="#000000" class="hovered-path" opacity="1"></path><path d="M0 0h.007" style="stroke-width:20;stroke-linecap:round;stroke-linejoin:round;stroke-miterlimit:22.926;stroke-dasharray:none;stroke-opacity:1" transform="translate(52.582 448.283)" fill="none" stroke="#494949" stroke-width="20" stroke-linecap="round" stroke-linejoin="round" stroke-miterlimit="22.926" stroke-dasharray="none" stroke-opacity="" data-original="#000000" class="hovered-path" opacity="1"></path><path d="M0 0h.007" style="stroke-width:20;stroke-linecap:round;stroke-linejoin:round;stroke-miterlimit:22.926;stroke-dasharray:none;stroke-opacity:1" transform="translate(69.382 58.283)" fill="none" stroke="#494949" stroke-width="20" stroke-linecap="round" stroke-linejoin="round" stroke-miterlimit="22.926" stroke-dasharray="none" stroke-opacity="" data-original="#000000" class="hovered-path" opacity="1"></path><path d="M0 0h.007" style="stroke-width:20;stroke-linecap:round;stroke-linejoin:round;stroke-miterlimit:22.926;stroke-dasharray:none;stroke-opacity:1" transform="translate(456.983 63.083)" fill="none" stroke="#494949" stroke-width="20" stroke-linecap="round" stroke-linejoin="round" stroke-miterlimit="22.926" stroke-dasharray="none" stroke-opacity="" data-original="#000000" class="hovered-path" opacity="1"></path><path d="M0 0h.007" style="stroke-width:20;stroke-linecap:round;stroke-linejoin:round;stroke-miterlimit:2.613;stroke-dasharray:none;stroke-opacity:1" transform="translate(81.467 261.013)" fill="none" stroke="#494949" stroke-width="20" stroke-linecap="round" stroke-linejoin="round" stroke-miterlimit="2.613" stroke-dasharray="none" stroke-opacity="" data-original="#000000" class="hovered-path" opacity="1"></path></g><g clip-path="url(#b)" transform="matrix(1.33333 0 0 -1.33333 0 682.667)"><path d="M0 0c-19.476-59.881-14.676-109.023 13.389-137.089 59.863-59.863 207.233-9.551 329.159 112.376C464.474 97.213 514.787 244.583 454.923 304.446c-28.064 28.065-77.205 32.865-137.084 13.39" style="stroke-width:20;stroke-linecap:round;stroke-linejoin:round;stroke-miterlimit:2.613;stroke-dasharray:none;stroke-opacity:1" transform="translate(-510.16 704.326)" fill="none" stroke="#494949" stroke-width="20" stroke-linecap="round" stroke-linejoin="round" stroke-miterlimit="2.613" stroke-dasharray="none" stroke-opacity="" data-original="#000000" class="hovered-path" opacity="1"></path></g></g></svg>